# xmcd
#
# Track frame offsets:
#	150
#	10077
#	22355
#	35734
#	47704
#	58095
#	68641
#	78959
#	89424
#	102034
#	114129
#	126262
#	137712
#	147095
#	158866
#	169412
#	181029
#	193788
#	204744
#	215785
#
# Disc length: 3021 seconds
#
# Revision: 0
# Processed by: cddbd v1.5.2PL0 Copyright (c) Steve Scherf et al.
# Submitted via: EasyCDDAExtractor 16.0.8.1
#
DISCID=210bcb14
DTITLE=Diadalmas Rock and Roll - Három lépésre a menyországtól
DYEAR=1900
DGENRE=Rock and Roll
TTITLE0=Elvis Presley - Heartbreak Hotel
TTITLE1=Jerry Lee Lewis - Breathless
TTITLE2=Mina - Tintarella di luna
TTITLE3=The Platters - Only You
TTITLE4=The Cricers - That 'll Be the Day
TTITLE5=Johnny Preston - Cradle of Love
TTITLE6=The Everly Brothers - All I Have to Do Is Dream
TTITLE7=Neil Sedaka - Breaking up Is Hard to Do
TTITLE8=Roy Orbison - Crying
TTITLE9=The Everly Brothers - Let it Be Me
TTITLE10=Dion - Runaround Sue
TTITLE11=Roy Orbison - Dream Baby
TTITLE12=Buddy Holly - It Doesn't Matter Anymore
TTITLE13=Neil Sedaka - Happy Birthday Sweet Sixteen
TTITLE14=Frankie Lymon and the Teenagers - Why Do Fools Fall in Love
TTITLE15=Dion and the Belmonts - A Teenager in Love
TTITLE16=Buddy Holly - True Love Ways
TTITLE17=Tommy Sands - Teen-Age Crush
TTITLE18=Roy Orbison - Only the Lonely
TTITLE19=Eddie Cochran - Three Steps to Haven
EXTD=
EXTT0=
EXTT1=
EXTT2=
EXTT3=
EXTT4=
EXTT5=
EXTT6=
EXTT7=
EXTT8=
EXTT9=
EXTT10=
EXTT11=
EXTT12=
EXTT13=
EXTT14=
EXTT15=
EXTT16=
EXTT17=
EXTT18=
EXTT19=
PLAYORDER=
